<svg width="30" height="30" viewBox="0 0 30 30" fill="none" xmlns="http://www.w3.org/2000/svg">
<path fill-rule="evenodd" clip-rule="evenodd" d="M21.5777 0C26.229 0 30 3.77103 30 8.42228V21.5777C30 26.229 26.229 30 21.5777 30H8.42228C5.79309 30 3.44478 28.7938 1.90147 26.908C1.89138 26.8957 1.87355 26.8733 1.87068 26.8698C1.83726 26.8284 1.80212 26.7851 1.76712 26.7401C1.75818 26.7286 1.74854 26.7159 1.73913 26.7037C1.70708 26.6619 1.67348 26.6166 1.6393 26.5703C1.63124 26.5593 1.61851 26.5424 1.61504 26.5376C1.57916 26.4884 1.54456 26.4395 1.51148 26.3921C1.50973 26.3895 1.50756 26.3868 1.50401 26.3818C1.50096 26.3775 1.49662 26.3709 1.49188 26.3641C1.41781 26.257 1.34576 26.1476 1.27636 26.0366C1.26815 26.0234 1.25697 26.0047 1.25303 25.9983C1.18539 25.8888 1.11917 25.7777 1.05617 25.6643C1.05617 25.6643 1.05512 25.6609 1.05337 25.6578C1.05185 25.6551 1.04927 25.651 1.04684 25.6466C0.380123 24.4401 0 23.0519 0 21.5777V8.42228C2.79037e-06 7.52947 0.139424 6.66791 0.397462 5.8593C0.404235 5.83807 0.415139 5.80369 0.425453 5.77253C0.435858 5.74112 0.449622 5.70409 0.456242 5.68483C0.462571 5.66641 0.476363 5.62499 0.487964 5.59246C0.505955 5.54202 0.524444 5.49303 0.541146 5.44878C0.541146 5.44878 0.542382 5.44536 0.544878 5.43851C0.546956 5.43281 0.550857 5.42265 0.555141 5.41146C0.599058 5.2968 0.644957 5.18381 0.692293 5.07464C0.697666 5.06225 0.703248 5.04874 0.709088 5.03545C0.72567 4.99774 0.742717 4.95934 0.760403 4.92069C0.768675 4.90262 0.778949 4.88037 0.789326 4.85818C2.1019 2.05153 4.91862 0.0861315 8.20489 0.00279903H8.21329L8.41295 0H21.5777ZM5.66057 26.8147C6.48522 27.2507 7.42423 27.4995 8.42228 27.4995H21.5777C24.1934 27.4995 26.4122 25.8022 27.1954 23.4493L5.66057 26.8147ZM2.60776 7.29707C2.53778 7.66095 2.50047 8.03719 2.50047 8.42228V21.5777C2.50047 22.5997 2.75863 23.5603 3.21329 24.3982L12.5023 22.9464C12.4879 22.7134 12.4678 22.4387 12.438 22.1226L12.4296 22.0349L12.4156 21.8865L12.3978 21.7326C12.3034 20.9989 12.0652 20.3825 11.7158 19.9478C11.3023 19.4335 10.6569 19.0703 9.52696 19.0194L9.29558 19.0129L8.01362 19.0138L7.7925 18.5361L7.49207 17.8923C6.72035 16.2386 6.33984 14.5731 6.3398 12.8933C6.33989 11.1765 6.88972 9.50965 7.88113 8.12092L2.60776 7.29707ZM23.3038 10.5309C23.5355 11.2916 23.6602 12.0864 23.6602 12.8933C23.6602 14.5562 23.2876 16.2054 22.5313 17.8429L22.5303 17.8419L22.5098 17.8886L22.4603 17.9968L22.4575 17.9987L22.1655 18.6275L21.9854 19.0138H20.7473C19.4524 19.0139 18.74 19.3909 18.2973 19.9319C17.9244 20.3877 17.6748 21.0483 17.5891 21.8399L17.5863 21.8595L17.5872 21.8604L17.5583 22.1571L27.4995 20.6037V11.1868L23.3038 10.5309ZM15 7.15992C11.3711 7.15993 8.95136 9.93696 8.9513 12.8933C8.9513 14.013 9.17462 15.1811 9.69491 16.4135C11.6214 16.5145 12.9185 17.2763 13.7507 18.3113C14.5789 19.3413 14.8918 20.5765 14.9991 21.5152C15.1072 20.568 15.4277 19.3159 16.2764 18.2786C17.11 17.2598 18.3995 16.5136 20.3042 16.4135C20.8245 15.181 21.0487 14.0131 21.0487 12.8933C21.0486 9.93695 18.6289 7.15992 15 7.15992ZM8.42228 2.50047C6.56891 2.50047 4.91542 3.35357 3.82907 4.68837L10.5057 5.73148C11.8279 4.96254 13.364 4.54843 15 4.54842L15.4525 4.55869C17.6987 4.66475 19.728 5.56015 21.2362 7.07595C21.3614 7.20179 21.4807 7.33281 21.5964 7.46501L27.4977 8.38683C27.4787 5.13277 24.8362 2.50047 21.5777 2.50047H8.42228Z" fill="white"/>
</svg>
