<svg width="400" height="56" viewBox="0 0 400 56" fill="none" xmlns="http://www.w3.org/2000/svg">
<path d="M372.555 14.3068C372.555 21.69 366.561 27.6754 359.166 27.6754C351.771 27.6754 345.777 21.69 345.777 14.3068C345.777 6.92348 351.771 0.938148 359.166 0.938148C366.561 0.938148 372.555 6.92348 372.555 14.3068Z" fill="white"/>
<path d="M399.804 14.3068C399.804 21.69 393.809 27.6754 386.415 27.6754C379.02 27.6754 373.025 21.69 373.025 14.3068C373.025 6.92348 379.02 0.938148 386.415 0.938148C393.809 0.938148 399.804 6.92348 399.804 14.3068Z" fill="white"/>
<path d="M345.307 14.3068C345.307 21.69 339.312 27.6754 331.917 27.6754C324.523 27.6754 318.528 21.69 318.528 14.3068C318.528 6.92348 324.523 0.938148 331.917 0.938148C339.312 0.938148 345.307 6.92348 345.307 14.3068Z" fill="white"/>
<path fill-rule="evenodd" clip-rule="evenodd" d="M375.59 33.9457C373.556 35.2839 372.862 36.2061 369.779 41.6788C367.279 46.1163 364.897 48.9729 364.105 48.4841C363.662 48.2102 363.598 46.985 363.845 43.496C364.204 38.446 363.71 35.9083 362.213 35.108C361.734 34.8524 360.311 34.6427 359.052 34.6427H356.762L356.961 38.7842C357.109 41.8843 356.98 43.2699 356.445 44.2958C355.575 45.9666 353.412 48.0517 352.988 47.6286C352.818 47.4588 352.715 44.8371 352.758 41.8022C352.801 38.7673 352.675 36.0523 352.477 35.7685C351.526 34.3983 348.808 33.8153 346.392 34.4617C345.421 34.722 345.367 34.9795 345.434 39.0905C345.499 43.2 345.428 43.5453 344.157 45.2583C342.271 47.8016 340.513 49.6531 339.984 49.6531C339.708 49.6531 339.655 47.5465 339.849 44.1415C340.118 39.3869 340.047 38.4042 339.328 36.9881C338.374 35.1094 336.151 34.1464 333.641 34.5245L332.075 34.7604L332.287 37.263C332.404 38.6392 332.396 40.3012 332.271 40.9565C332.068 42.0166 331.815 42.1479 329.983 42.1479H327.924V39.3124C327.924 34.9195 326.064 33.5366 321.405 34.4668L319.937 34.76V42.9251C319.937 52.088 320.364 53.9944 322.61 54.8462C323.431 55.1581 324.707 55.1971 326.038 54.9508L328.159 54.5587L327.992 50.9332C327.829 47.3921 327.851 47.3077 328.932 47.3012C329.54 47.2979 330.514 47.1675 331.095 47.0122C332.044 46.7584 332.152 46.8973 332.152 48.3683C332.152 55.0151 338.162 57.2038 343.509 52.5041L345.601 50.6658L346.883 52.27C348.003 53.6716 348.435 53.8747 350.29 53.8747C352.646 53.8747 353.869 53.3785 355.691 51.6846L356.914 50.5476L358.58 52.2109C361.905 55.5301 366.326 53.8959 371.067 47.5962C371.969 46.3986 372.306 46.3395 372.147 47.4081C372.119 47.5924 372.39 47.6309 372.749 47.4935C373.107 47.356 373.54 47.4691 373.71 47.7449C373.881 48.0202 374.589 48.2524 375.285 48.2609C376.519 48.2754 376.527 48.2928 375.609 49.0109C375.092 49.4153 373.771 50.14 372.673 50.6213C371.575 51.1025 370.676 51.6832 370.676 51.9126C370.676 52.8902 372.892 55.4781 374.06 55.8641C375.95 56.4884 379.198 54.8931 380.948 52.4807C382.312 50.6011 382.377 50.5697 382.898 51.5416C383.648 52.9408 386.394 54.0047 388.225 53.606C391.57 52.8766 396.892 47.8664 399.094 43.3736C400.345 40.8195 400.304 39.6313 398.946 39.097C398.38 38.8742 397.634 39.4188 396.281 41.0432C392.895 45.1073 390.19 47.728 389.234 47.8711C388.397 47.9958 388.277 47.7031 388.136 45.1969C388.049 43.6489 388.23 40.9438 388.536 39.1857C389.05 36.2479 389.024 35.9359 388.224 35.3308C387.746 34.9687 386.631 34.6657 385.747 34.6577C384.863 34.6493 383.75 34.2904 383.273 33.8598C382.78 33.4137 381.348 32.9953 379.948 32.887C377.883 32.7275 377.184 32.8977 375.59 33.9457ZM378.941 38.5126C377.845 40.2045 377.5 42.1479 378.295 42.1479C379.486 42.1479 382.3 38.4305 381.622 37.7531C380.982 37.1152 379.59 37.5092 378.941 38.5126Z" fill="white"/>
<path fill-rule="evenodd" clip-rule="evenodd" d="M202.956 55.3723H216.11V41.3001C216.11 33.5604 216.269 27.2302 216.463 27.2335C216.657 27.2363 219.049 33.5163 221.78 41.1885L226.745 55.1378L237.603 55.4009L240.509 47.2953C242.108 42.8368 244.408 36.3786 245.619 32.9431L247.822 26.6969L248.071 55.3981L261.447 55.1378L261.689 0L245.15 0.25611L238.848 17.5762C235.382 27.1022 232.455 34.9882 232.343 35.0999C232.05 35.3926 231.489 33.9403 225.002 16.0874L219.164 0.0220451L202.956 0.0215727V55.3723ZM285.013 0.373378C284.783 0.750514 280.334 11.3469 272.948 29.1042C270.427 35.1669 266.966 43.4597 265.258 47.5322C263.549 51.6047 262.151 55.0402 262.151 55.1664C262.151 55.2926 265.458 55.3381 269.499 55.2668L276.848 55.1378L281.786 42.4728H298.561L303.674 55.3723H310.866C314.941 55.3723 318.058 55.1847 318.058 54.9398C318.058 54.702 314.986 47.156 311.231 38.1704C307.476 29.1853 302.363 16.9261 299.869 10.9275L295.335 0.0215727H290.281C287.501 0.0215727 285.131 0.179651 285.013 0.373378ZM288.775 24.7629C288.085 26.5182 287.521 28.2134 287.521 28.5296C287.521 28.9194 288.428 29.1042 290.34 29.1042C291.89 29.1042 293.158 29.024 293.158 28.9255C293.158 28.4592 290.698 22.258 290.385 21.9367C290.19 21.7355 289.465 23.0071 288.775 24.7629Z" fill="white"/>
<path fill-rule="evenodd" clip-rule="evenodd" d="M0 55.3507H64.3633V0H50.739V42.2167H38.9938V0H25.3695V42.2167H13.6243V0H0V55.3507ZM86.7133 2.63667C86.0486 4.08657 85.5045 5.34651 85.5045 5.43564C85.5045 5.52523 80.8535 16.7084 75.1688 30.2872C69.4842 43.8659 64.8331 55.0655 64.8331 55.1753C64.8331 55.2851 68.1443 55.3165 72.1912 55.2452L79.5493 55.1162L84.6406 42.2167H101.29L106.397 55.3507H121.222L120.475 53.5917C120.064 52.6245 115.713 42.2284 110.808 30.4898C105.902 18.7512 101.019 7.08912 99.9571 4.57347L98.0263 0H87.9226L86.7133 2.63667ZM110.14 0.809156C110.313 1.26697 114.883 10.2526 120.295 20.7767C125.708 31.3008 130.136 40.2892 130.136 40.7513C130.136 41.2133 130.007 41.7199 129.85 41.8766C129.693 42.0337 128.236 45.0771 126.612 48.6392L123.661 55.1162L130.738 55.2461C134.631 55.3174 137.982 55.2096 138.186 55.006C138.685 54.5083 163.022 0.821815 163.022 0.219993C163.022 0.0989719 159.785 0 155.829 0H148.636L143.306 12.2016C140.375 18.9121 137.851 24.2811 137.698 24.1329C137.544 23.9847 134.756 18.5467 131.503 12.0491L125.587 0.234537L117.706 0.105545C110.324 -0.0150075 109.845 0.0295546 110.14 0.809156ZM163.962 55.3507H177.117V35.7697L181.08 35.6914C190.404 35.508 196.608 31.8253 199.213 24.9271C202.579 16.0151 199.47 6.85833 191.634 2.60008C187.766 0.498156 184.553 0.0347132 173.71 0.0164193L163.962 0V55.3507ZM177.117 23.1192L180.386 22.8158C182.185 22.6492 184.179 22.2749 184.818 21.9841C186.281 21.3185 187.09 19.4098 186.897 17.0795C186.674 14.386 184.592 13.1341 180.336 13.1341H177.117V23.1192ZM91.2672 25.2263L89.8484 28.8481L92.6639 28.9893C94.2124 29.0667 95.5837 29.0258 95.7115 28.8982C95.9788 28.6318 93.487 22.099 93.005 21.8016C92.8293 21.6933 92.0475 23.2346 91.2672 25.2263Z" fill="white"/>
</svg>
