<svg width="852" height="120" viewBox="0 0 852 120" fill="none" xmlns="http://www.w3.org/2000/svg">
<path d="M793 30.5C793 46.2401 780.24 59 764.5 59C748.76 59 736 46.2401 736 30.5C736 14.7599 748.76 2 764.5 2C780.24 2 793 14.7599 793 30.5Z" fill="#F9E337"/>
<path d="M851 30.5C851 46.2401 838.24 59 822.5 59C806.76 59 794 46.2401 794 30.5C794 14.7599 806.76 2 822.5 2C838.24 2 851 14.7599 851 30.5Z" fill="#9FD22B"/>
<path d="M735 30.5C735 46.2401 722.24 59 706.5 59C690.76 59 678 46.2401 678 30.5C678 14.7599 690.76 2 706.5 2C722.24 2 735 14.7599 735 30.5Z" fill="white"/>
<path fill-rule="evenodd" clip-rule="evenodd" d="M799.459 72.3674C795.129 75.2204 793.653 77.1864 787.09 88.8534C781.769 98.3134 776.699 104.403 775.013 103.361C774.069 102.777 773.933 100.165 774.46 92.7274C775.223 81.9614 774.172 76.5514 770.986 74.8454C769.966 74.3004 766.938 73.8534 764.258 73.8534H759.384L759.806 82.6824C760.122 89.2914 759.846 92.2454 758.709 94.4324C756.856 97.9944 752.253 102.439 751.35 101.537C750.989 101.175 750.768 95.5864 750.86 89.1164C750.952 82.6464 750.683 76.8584 750.263 76.2534C748.237 73.3324 742.453 72.0894 737.31 73.4674C735.243 74.0224 735.129 74.5714 735.27 83.3354C735.41 92.0964 735.258 92.8324 732.553 96.4844C728.538 101.906 724.796 105.853 723.671 105.853C723.082 105.853 722.971 101.362 723.382 94.1034C723.956 83.9674 723.804 81.8724 722.274 78.8534C720.244 74.8484 715.512 72.7954 710.168 73.6014L706.836 74.1044L707.287 79.4394C707.535 82.3734 707.519 85.9164 707.252 87.3134C706.82 89.5734 706.283 89.8534 702.383 89.8534H698V83.8084C698 74.4434 694.04 71.4954 684.125 73.4784L681 74.1034V91.5104C681 111.044 681.909 115.108 686.688 116.924C688.436 117.589 691.152 117.672 693.986 117.147L698.5 116.311L698.145 108.582C697.797 101.033 697.844 100.853 700.145 100.839C701.44 100.832 703.513 100.554 704.75 100.223C706.769 99.6824 707 99.9784 707 103.114C707 117.284 719.792 121.95 731.174 111.931L735.627 108.012L738.356 111.432C740.74 114.42 741.658 114.853 745.608 114.853C750.622 114.853 753.226 113.795 757.103 110.184L759.707 107.76L763.253 111.306C770.329 118.382 779.741 114.898 789.832 101.468C791.751 98.9154 792.47 98.7894 792.13 101.067C792.072 101.46 792.648 101.542 793.411 101.249C794.174 100.956 795.095 101.197 795.458 101.785C795.821 102.372 797.329 102.867 798.809 102.885C801.437 102.916 801.453 102.953 799.5 104.484C798.4 105.346 795.587 106.891 793.25 107.917C790.913 108.943 789 110.181 789 110.67C789 112.754 793.717 118.271 796.203 119.094C800.225 120.425 807.139 117.024 810.864 111.881C813.767 107.874 813.905 107.807 815.014 109.879C816.61 112.862 822.456 115.13 826.354 114.28C833.474 112.725 844.802 102.044 849.489 92.4664C852.152 87.0214 852.065 84.4884 849.173 83.3494C847.968 82.8744 846.381 84.0354 843.5 87.4984C836.293 96.1624 830.535 101.749 828.5 102.054C826.719 102.32 826.463 101.696 826.164 96.3534C825.979 93.0534 826.363 87.2864 827.016 83.5384C828.109 77.2754 828.055 76.6104 826.352 75.3204C825.334 74.5484 822.96 73.9024 821.079 73.8854C819.197 73.8674 816.828 73.1024 815.813 72.1844C814.763 71.2334 811.716 70.3414 808.735 70.1104C804.34 69.7704 802.851 70.1334 799.459 72.3674ZM806.591 82.1034C804.258 85.7104 803.524 89.8534 805.217 89.8534C807.752 89.8534 813.742 81.9284 812.298 80.4844C810.937 79.1244 807.974 79.9644 806.591 82.1034Z" fill="#9FD22B"/>
<path fill-rule="evenodd" clip-rule="evenodd" d="M432 118.046H460V88.046C460 71.546 460.337 58.051 460.75 58.058C461.163 58.064 466.256 71.452 472.068 87.808L482.636 117.546L505.747 118.107L511.934 100.827C515.338 91.322 520.232 77.554 522.811 70.23L527.5 56.914L528.029 118.101L556.5 117.546L557.016 0L521.812 0.54599L508.398 37.47C501.021 57.778 494.79 74.59 494.551 74.828C493.928 75.452 492.734 72.356 478.926 34.296L466.5 0.0469971L432 0.04599V118.046ZM606.662 0.79599C606.172 1.59999 596.702 24.19 580.982 62.046C575.615 74.971 568.249 92.65 564.612 101.332C560.975 110.014 558 117.338 558 117.607C558 117.876 565.039 117.973 573.641 117.821L589.282 117.546L599.793 90.546H635.5L646.383 118.046H661.691C670.366 118.046 677 117.646 677 117.124C677 116.617 670.461 100.53 662.468 81.374C654.475 62.219 643.592 36.084 638.284 23.296L628.633 0.04599H617.875C611.959 0.04599 606.913 0.38299 606.662 0.79599ZM614.67 52.791C613.201 56.533 612 60.147 612 60.821C612 61.652 613.931 62.046 618 62.046C621.3 62.046 624 61.875 624 61.665C624 60.671 618.762 47.451 618.097 46.766C617.681 46.337 616.138 49.048 614.67 52.791Z" fill="#F9E337"/>
<path fill-rule="evenodd" clip-rule="evenodd" d="M0 118H137V0H108V90H83V0H54V90H29V0H0V118ZM184.573 5.621C183.158 8.712 182 11.398 182 11.588C182 11.779 172.1 35.62 160 64.568C147.9 93.516 138 117.392 138 117.626C138 117.86 145.048 117.927 153.662 117.775L169.324 117.5L180.161 90H215.6L226.471 118H258.027L256.436 114.25C255.561 112.188 246.301 90.025 235.859 65C225.417 39.975 215.023 15.113 212.763 9.75L208.653 0H187.147L184.573 5.621ZM234.437 1.72501C234.806 2.70101 244.533 21.857 256.054 44.293C267.574 66.729 277 85.891 277 86.876C277 87.861 276.726 88.941 276.391 89.275C276.056 89.61 272.955 96.098 269.5 103.692L263.218 117.5L278.282 117.777C286.567 117.929 293.701 117.699 294.135 117.265C295.196 116.204 347 1.75199 347 0.468994C347 0.210994 340.11 0 331.688 0H316.377L305.033 26.012C298.794 40.318 293.422 51.764 293.095 51.448C292.768 51.132 286.834 39.539 279.909 25.687L267.317 0.5L250.542 0.225006C234.83 -0.0319939 233.81 0.0630062 234.437 1.72501ZM349 118H377V76.256L385.437 76.089C405.282 75.698 418.488 67.847 424.033 53.141C431.197 34.142 424.581 14.621 407.902 5.543C399.668 1.062 392.829 0.0740037 369.75 0.0350037L349 0V118ZM377 49.287L383.96 48.64C387.788 48.285 392.033 47.487 393.393 46.867C396.506 45.448 398.229 41.379 397.818 36.411C397.343 30.669 392.912 28 383.852 28H377V49.287ZM194.266 53.779L191.246 61.5L197.239 61.801C200.535 61.966 203.454 61.879 203.726 61.607C204.295 61.039 198.991 47.112 197.965 46.478C197.591 46.247 195.927 49.533 194.266 53.779Z" fill="white"/>
</svg>
