<svg width="30" height="30" viewBox="0 0 30 30" fill="none" xmlns="http://www.w3.org/2000/svg">
<path d="M9.08105 9.7998C9.18224 14.8428 11.4531 16.9785 13.252 17.4189V9.7998H16.1523V14.1494C17.9287 13.9622 19.7952 11.98 20.4248 9.7998H23.3252C22.8417 12.4865 20.818 14.4684 19.3789 15.2832C20.818 15.9439 23.123 17.6727 24 20.7998H20.8066C20.1208 18.7077 18.4122 17.0894 16.1523 16.8691V20.7998H15.8037C9.65387 20.7998 6.14616 16.6706 6 9.7998H9.08105Z" fill="white"/>
<path fill-rule="evenodd" clip-rule="evenodd" d="M15.5996 0C22.3878 0 25.7827 -0.000423431 27.8916 2.1084C30.0004 4.21723 30 7.61214 30 14.4004V15.5996C30 22.3879 30.0004 25.7827 27.8916 27.8916L27.6895 28.083C25.5667 30 22.1755 30 15.5996 30H14.4004L12.0098 29.9961C6.97029 29.9683 4.15944 29.7527 2.31055 28.083L2.1084 27.8916C-0.000423431 25.7827 0 22.3878 0 15.5996V14.4004C0 7.61214 -0.00043273 4.21723 2.1084 2.1084C3.95367 0.263127 6.78345 0.0327289 12.0098 0.00390625L14.4004 0H15.5996ZM14.4004 2.7002C10.9299 2.7002 8.5983 2.70566 6.85938 2.93945C5.19813 3.1628 4.48672 3.54844 4.01758 4.01758C3.54844 4.48672 3.1628 5.19813 2.93945 6.85938C2.70566 8.5983 2.7002 10.9299 2.7002 14.4004V15.5996C2.7002 19.0701 2.70566 21.4017 2.93945 23.1406C3.1628 24.8018 3.54843 25.5133 4.01758 25.9824C4.48672 26.4516 5.19813 26.8372 6.85938 27.0605C8.59831 27.2943 10.9299 27.2998 14.4004 27.2998H15.5996C19.0701 27.2998 21.4017 27.2943 23.1406 27.0605C24.8018 26.8372 25.5133 26.4516 25.9824 25.9824C26.4516 25.5133 26.8372 24.8018 27.0605 23.1406C27.2943 21.4017 27.2998 19.0701 27.2998 15.5996V14.4004C27.2998 10.9299 27.2943 8.59831 27.0605 6.85938C26.8372 5.19813 26.4516 4.48672 25.9824 4.01758C25.5133 3.54843 24.8018 3.1628 23.1406 2.93945C21.4017 2.70566 19.0701 2.7002 15.5996 2.7002H14.4004Z" fill="white"/>
</svg>
